<svg xmlns="http://www.w3.org/2000/svg" 
xmlns:xlink="http://www.w3.org/1999/xlink"
 aria-hidden="true" role="img" style="vertical-align: -0.125em;" 
  preserveAspectRatio="none" 
  viewBox="0 0 800 400">
  <path d="M248 120h-8V88a16.018 16.018 0 0 0-16-16h-16v-8a16.018 16.018 0 0 0-16-16h-24a16.018 16.018 0 0 0-16 16v56h-48V64a16.018 16.018 0 0 0-16-16H64a16.018 16.018 0 0 0-16 16v8H32a16.018 16.018 0 0 0-16 16v32H8a8 8 0 0 0 0 16h8v32a16.018 16.018 0 0 0 16 16h16v8a16.018 16.018 0 0 0 16 16h24a16.018 16.018 0 0 0 16-16v-56h48v56a16.018 16.018 0 0 0 16 16h24a16.018 16.018 0 0 0 16-16v-8h16a16.018 16.018 0 0 0 16-16v-32h8a8 8 0 0 0 0-16zM32 168V88h16v80zm56 24H64V64h24l.005 63.9c0 .034-.005.066-.005.1s.005.066.005.1l.005 63.9zm104 0h-24V64h24l.001 15.975L192 80l.001.025l.008 95.8c-.001.059-.009.116-.009.175c0 .06.008.117.009.176L192.01 192zm32-24h-16V88h16z"
 fill="#f8f8f8" opacity="0.03"/></svg>
